<svg xmlns="http://www.w3.org/2000/svg" xmlns:xlink="http://www.w3.org/1999/xlink" viewBox="0,0,256,256" width="48px" height="48px" fill-rule="nonzero"><g fill="#ffffff" fill-rule="nonzero" stroke="none" stroke-width="1" stroke-linecap="butt" stroke-linejoin="miter" stroke-miterlimit="10" stroke-dasharray="" stroke-dashoffset="0" font-family="none" font-weight="none" font-size="none" text-anchor="none" style="mix-blend-mode: normal"><g transform="scale(5.33333,5.33333)"><path d="M13.5,6c-4.1245,0 -7.5,3.3755 -7.5,7.5v21c0,4.1245 3.3755,7.5 7.5,7.5h21c4.1245,0 7.5,-3.3755 7.5,-7.5v-21c0,-4.1245 -3.3755,-7.5 -7.5,-7.5zM13.5,9h21c2.5035,0 4.5,1.9965 4.5,4.5v4.5h-8.40039c-1.64898,-1.81346 -3.96841,-3 -6.59961,-3c-2.6312,0 -4.95063,1.18654 -6.59961,3h-8.40039v-4.5c0,-2.5035 1.9965,-4.5 4.5,-4.5zM31.5,12c-0.54095,-0.00765 -1.04412,0.27656 -1.31683,0.74381c-0.27271,0.46725 -0.27271,1.04514 0,1.51238c0.27271,0.46725 0.77588,0.75146 1.31683,0.74381h3c0.54095,0.00765 1.04412,-0.27656 1.31683,-0.74381c0.27271,-0.46725 0.27271,-1.04514 0,-1.51238c-0.27271,-0.46725 -0.77588,-0.75146 -1.31683,-0.74381zM24,18c3.33148,0 6,2.66852 6,6c0,3.33148 -2.66852,6 -6,6c-3.33148,0 -6,-2.66852 -6,-6c0,-3.33148 2.66852,-6 6,-6zM9,21h6.60742c-0.34146,0.94808 -0.60742,1.93757 -0.60742,3c0,4.95279 4.0472,9 9,9c4.9528,0 9,-4.04721 9,-9c0,-1.06243 -0.26597,-2.05192 -0.60742,-3h6.60742v13.5c0,2.5035 -1.9965,4.5 -4.5,4.5h-21c-2.5035,0 -4.5,-1.9965 -4.5,-4.5z"></path></g></g></svg>