<svg xmlns="http://www.w3.org/2000/svg" xmlns:xlink="http://www.w3.org/1999/xlink" viewBox="0,0,256,256" width="48px" height="48px" fill-rule="nonzero"><g fill="#ffffff" fill-rule="nonzero" stroke="none" stroke-width="1" stroke-linecap="butt" stroke-linejoin="miter" stroke-miterlimit="10" stroke-dasharray="" stroke-dashoffset="0" font-family="none" font-weight="none" font-size="none" text-anchor="none" style="mix-blend-mode: normal"><g transform="scale(5.33333,5.33333)"><path d="M11.5,6c-3.01977,0 -5.5,2.48023 -5.5,5.5v25c0,3.01977 2.48023,5.5 5.5,5.5h25c3.01977,0 5.5,-2.48023 5.5,-5.5v-25c0,-3.01977 -2.48023,-5.5 -5.5,-5.5zM11.5,9h25c1.39823,0 2.5,1.10177 2.5,2.5v25c0,1.39823 -1.10177,2.5 -2.5,2.5h-25c-1.39823,0 -2.5,-1.10177 -2.5,-2.5v-25c0,-1.39823 1.10177,-2.5 2.5,-2.5zM15.5,13c-1.38071,0 -2.5,1.11929 -2.5,2.5c0,1.38071 1.11929,2.5 2.5,2.5c1.38071,0 2.5,-1.11929 2.5,-2.5c0,-1.38071 -1.11929,-2.5 -2.5,-2.5zM14,20c-0.553,0 -1,0.447 -1,1v13c0,0.553 0.447,1 1,1h3c0.553,0 1,-0.447 1,-1v-13c0,-0.553 -0.447,-1 -1,-1zM21,20c-0.553,0 -1,0.447 -1,1v13c0,0.553 0.447,1 1,1h3c0.553,0 1,-0.447 1,-1v-7.5c0,-1.379 1.121,-2.5 2.5,-2.5c1.379,0 2.5,1.121 2.5,2.5v7.5c0,0.553 0.447,1 1,1h3c0.553,0 1,-0.447 1,-1v-8c0,-3.309 -2.691,-6 -6,-6c-1.538,0 -2.937,0.58602 -4,1.54102v-0.54102c0,-0.553 -0.447,-1 -1,-1z"></path></g></g></svg>