<svg xmlns="http://www.w3.org/2000/svg" version="1.1" xmlns:xlink="http://www.w3.org/1999/xlink" xmlns:svgjs="http://svgjs.dev/svgjs" width="1000" height="1000" viewBox="0 0 1000 1000"><rect width="1000" height="1000" fill="#ff7b1b"></rect><g transform="matrix(0.41103934233705225,0,0,0.41103934233705225,293.9624255834505,150.2834083271577)"><svg viewBox="0 0 145 247" data-background-color="#ff7b1b" preserveAspectRatio="xMidYMid meet" height="1703" width="1000" xmlns="http://www.w3.org/2000/svg" xmlns:xlink="http://www.w3.org/1999/xlink"><g id="tight-bounds" transform="matrix(1,0,0,1,0.1826978936978776,-0.10000265258278773)"><svg viewBox="0 0 144.63459915611813 247.2" height="247.2" width="144.63459915611813"><g><svg viewBox="0 0 144.63459915611813 247.2" height="247.2" width="144.63459915611813"><g><svg viewBox="0 0 144.63459915611813 247.2" height="247.2" width="144.63459915611813"><g id="textblocktransform"><svg viewBox="0 0 144.63459915611813 247.2" height="247.2" width="144.63459915611813" id="textblock"><g><svg viewBox="0 0 144.63459915611813 247.2" height="247.2" width="144.63459915611813"><g transform="matrix(1,0,0,1,0,0)"><svg width="144.63459915611813" viewBox="0.45000001788139343 -35 20.799999237060547 35.54999923706055" height="247.2" data-palette-color="#ffffff"><path d="M0.45-4.5L0.45-4.5Q0.45-5.95 1.3-7.88 2.15-9.8 3.15-10.5L3.15-10.5Q5.05-9.1 7-9.1L7-9.1 8.55-9.35Q11.25-10.15 11.35-13.65L11.35-13.65 11.35-26.4 7.35-26.4Q6.5-26.4 6.15-28.55L6.15-28.55Q6-29.6 6-30.7 6-31.8 6.15-32.85L6.15-32.85Q6.5-35 7.35-35L7.35-35 19.25-35Q20.25-35 20.75-34.43 21.25-33.85 21.25-33.05L21.25-33.05 21.25-9.45Q21.25-4.55 17.98-2 14.7 0.55 10.13 0.55 5.55 0.55 3-0.8 0.45-2.15 0.45-4.5Z" opacity="1" transform="matrix(1,0,0,1,0,0)" fill="#ffffff" class="wordmark-text-0" data-fill-palette-color="primary" id="text-0"></path></svg></g></svg></g></svg></g></svg></g></svg></g><defs></defs></svg><rect width="144.63459915611813" height="247.2" fill="none" stroke="none" visibility="hidden"></rect></g></svg></g></svg>