<svg id="Ebene_1" data-name="Ebene 1" xmlns="http://www.w3.org/2000/svg" viewBox="0 0 135.33 71.09"><defs><style>.cls-1{fill:#005380;}.cls-2{fill:#ed7703;}.cls-3{fill:#fff;}</style></defs><title>ZLI_Logo_ohne_Schriftzug_RGB_zugeschnitten</title><path class="cls-1" d="M27.93,32.73c3.1,0,4.76,1.66,4.76,4.15S31,41,27.93,41H8.08c-4.81,0-6.31-2-6.31-4.92,0-1.55.61-2.49,1.66-3.93L20.35,9.61H7.14C4,9.61,2.38,8,2.38,5.63s1.66-4,4.76-4H26.38c4.76,0,5.48,2.93,5.48,4.48,0,1.88-1.66,4.15-4.2,7.52L13.33,32.73Z" transform="translate(-1.77 -1.31)"/><path class="cls-1" d="M36.06,6.07c0-3.15,1.88-4.76,4.48-4.76S45,2.92,45,6.07V32.73h9.63c2.82,0,4.47,1.54,4.47,4.14S57.47,41,54.65,41H40.54a4.32,4.32,0,0,1-4.48-4.48Z" transform="translate(-1.77 -1.31)"/><path class="cls-1" d="M71.79,5.78a4.48,4.48,0,0,0-9,0h0v30.8h0a4.47,4.47,0,0,0,8.94,0s0-.05,0-.07S71.79,5.82,71.79,5.78Z" transform="translate(-1.77 -1.31)"/><path class="cls-2" d="M94.46,31.25c5.42,0,11.89,1.55,11.89,6.25a4.07,4.07,0,0,1-3.87,4.25c-2.1,0-4.32-1.87-7.8-1.87-7.24,0-10.12,5.86-10.12,11.94,0,6.25,3.21,11.62,9.35,11.62,5.58,0,6.47-1.83,8.79-1.83,3.54,0,4,3,4,4.15,0,4.92-7.46,6.64-12.38,6.64-12.39,0-19.36-9.29-19.36-20.58C74.94,39.88,82.63,31.25,94.46,31.25Z" transform="translate(-1.77 -1.31)"/><path class="cls-2" d="M118.47,40.43h-5c-3,0-4.64-1.66-4.64-4.15s1.66-4.15,4.64-4.15h19c3,0,4.64,1.55,4.64,4.15s-1.66,4.15-4.64,4.15h-5V67.08c0,3.16-1.89,4.76-4.48,4.76s-4.48-1.6-4.48-4.76Z" transform="translate(-1.77 -1.31)"/><path class="cls-2" d="M71.79,36.56a4.48,4.48,0,0,0-9,0h0v30.8h0a4.47,4.47,0,0,0,8.94,0s0,0,0-.06S71.79,36.61,71.79,36.56Z" transform="translate(-1.77 -1.31)"/><path class="cls-3" d="M67.31,32.09a4.47,4.47,0,1,1-4.47,4.47,4.45,4.45,0,0,1,4.47-4.47" transform="translate(-1.77 -1.31)"/></svg>